<?xml version="1.0" encoding="utf-8"?>
<!-- Generator: Adobe Illustrator 21.1.0, SVG Export Plug-In . SVG Version: 6.00 Build 0)  -->
<svg version="1.1" id="Слой_1" xmlns="http://www.w3.org/2000/svg" xmlns:xlink="http://www.w3.org/1999/xlink" x="0px" y="0px"
	 width="36px" height="36px" viewBox="0 0 36 36" style="enable-background:new 0 0 36 36;" xml:space="preserve">
<style type="text/css">
	.st0{fill:#FFFFFF;}
</style>
<g>
	<path class="st0" d="M36,34.3c0,0.5-0.2,0.9-0.5,1.2S34.8,36,34.3,36H1.7c-0.5,0-0.9-0.2-1.2-0.5S0,34.8,0,34.3v-7.9
		c0-0.5,0.2-0.9,0.5-1.2s0.7-0.5,1.2-0.5H12l3.4,3.4c0.7,0.7,1.5,1.1,2.5,1.1s1.8-0.4,2.5-1.1l3.4-3.4h10.3c0.5,0,0.9,0.2,1.2,0.5
		S36,26,36,26.4V34.3z M20.8,0c0.5,0,0.9,0.2,1.2,0.5s0.5,0.7,0.5,1.2v11.8h6.2c0.6,0,1,0.3,1.3,0.9s0.1,1.1-0.3,1.5L19,26.6
		c-0.3,0.3-0.6,0.4-1,0.4s-0.7-0.1-1-0.4L6.3,15.9C5.9,15.5,5.8,15,6,14.4s0.7-0.9,1.3-0.9h6.2V1.7c0-0.5,0.2-0.9,0.5-1.2
		S14.7,0,15.2,0H20.8z M26.9,31.6c-0.3-0.3-0.6-0.4-1-0.4s-0.7,0.1-1,0.4s-0.4,0.6-0.4,1s0.1,0.7,0.4,1s0.6,0.4,1,0.4s0.7-0.1,1-0.4
		s0.4-0.6,0.4-1S27.1,31.9,26.9,31.6z M31.4,31.6c-0.3-0.3-0.6-0.4-1-0.4s-0.7,0.1-1,0.4s-0.4,0.6-0.4,1s0.1,0.7,0.4,1
		s0.6,0.4,1,0.4s0.7-0.1,1-0.4s0.4-0.6,0.4-1S31.6,31.9,31.4,31.6z"/>
</g>
</svg>
