<?xml version="1.0" encoding="utf-8"?>
<!-- Generator: Adobe Illustrator 21.1.0, SVG Export Plug-In . SVG Version: 6.00 Build 0)  -->
<svg version="1.1" id="Слой_1" xmlns="http://www.w3.org/2000/svg" xmlns:xlink="http://www.w3.org/1999/xlink" x="0px" y="0px"
	 width="18.8px" height="18px" viewBox="0 0 18.8 18" style="enable-background:new 0 0 18.8 18;" xml:space="preserve">
<style type="text/css">
	.st0{fill:#492E6A;}
</style>
<g>
	<path class="st0" d="M17.9,6c0.3,0,0.5,0.2,0.7,0.4s0.3,0.5,0.3,0.8s-0.1,0.5-0.4,0.7l-3.7,3.6l0.9,5.1c0.1,0.4,0,0.7-0.2,0.9
		S14.9,18,14.6,18c-0.2,0-0.4,0-0.5-0.1l-4.6-2.4l-4.6,2.4C4.7,18,4.5,18,4.3,18c-0.3,0-0.6-0.1-0.8-0.4s-0.3-0.6-0.2-0.9l0.9-5.1
		L0.4,7.9C0.1,7.7,0,7.5,0,7.2s0.1-0.5,0.3-0.8S0.7,6.1,0.9,6l5.2-0.7l2.3-4.6c0.1-0.2,0.3-0.4,0.4-0.5S9.2,0,9.4,0S9.8,0.1,10,0.2
		s0.3,0.3,0.4,0.5l2.3,4.6L17.9,6z M13.6,10.4l2.9-2.8l-4.9-0.7L9.4,2.4v11.1l4.4,2.3L13,11L13.6,10.4z"/>
</g>
</svg>
