<?xml version="1.0" encoding="utf-8"?>
<!-- Generator: Adobe Illustrator 21.1.0, SVG Export Plug-In . SVG Version: 6.00 Build 0)  -->
<svg version="1.1" id="Слой_1" xmlns="http://www.w3.org/2000/svg" xmlns:xlink="http://www.w3.org/1999/xlink" x="0px" y="0px"
	 width="20.2px" height="18px" viewBox="0 0 20.2 18" style="enable-background:new 0 0 20.2 18;" xml:space="preserve">
<style type="text/css">
	.st0{fill:#FFFFFF;}
</style>
<g>
	<path class="st0" d="M20.2,16.6c-0.1,0.4-0.3,0.7-0.6,1S19,18,18.6,18H1.7c-0.4,0-0.8-0.1-1.1-0.4S0.1,17,0,16.6s0-0.8,0.2-1.1
		L8.6,0.9c0.2-0.4,0.5-0.6,0.9-0.8s0.8-0.1,1.2,0s0.7,0.4,0.9,0.8L20,15.5C20.2,15.9,20.3,16.2,20.2,16.6z M9,12.9
		c-0.3,0.3-0.5,0.7-0.5,1.1s0.2,0.8,0.5,1.1s0.7,0.5,1.1,0.5s0.8-0.2,1.1-0.5s0.5-0.7,0.5-1.1s-0.2-0.8-0.5-1.1s-0.7-0.5-1.1-0.5
		S9.3,12.6,9,12.9z M8.9,11.4c0,0.1,0,0.2,0.1,0.3s0.2,0.1,0.3,0.1H11c0.1,0,0.2,0,0.3-0.1s0.1-0.2,0.1-0.3l0.3-4.8
		c0-0.1,0-0.3-0.1-0.3s-0.2-0.1-0.3-0.1H9c-0.1,0-0.2,0-0.3,0.1S8.6,6.5,8.6,6.7L8.9,11.4z"/>
</g>
</svg>
