<?xml version="1.0" encoding="utf-8"?>
<!-- Generator: Adobe Illustrator 21.1.0, SVG Export Plug-In . SVG Version: 6.00 Build 0)  -->
<svg version="1.1" id="Слой_1" xmlns="http://www.w3.org/2000/svg" xmlns:xlink="http://www.w3.org/1999/xlink" x="0px" y="0px"
	 width="21.6px" height="18px" viewBox="0 0 21.6 18" style="enable-background:new 0 0 21.6 18;" xml:space="preserve">
<style type="text/css">
	.st0{fill:#492E6A;}
</style>
<g>
	<path class="st0" d="M21.2,4.2c0.4,0.6,0.5,1.3,0.5,2S21.3,7.5,20.8,8S19.8,8.9,19.1,9c-0.2,0-0.3,0-0.5,0c-0.5,0-1-0.1-1.4-0.3
		S16.3,8.2,16,7.8c-0.3,0.4-0.7,0.6-1.2,0.8S13.9,9,13.4,9s-1-0.1-1.4-0.3s-0.8-0.5-1.2-0.8c-0.3,0.4-0.7,0.6-1.2,0.8S8.7,9,8.2,9
		s-1-0.1-1.4-0.3S5.9,8.2,5.6,7.8C5.3,8.2,4.9,8.5,4.5,8.7S3.5,9,3,9C2.9,9,2.7,9,2.6,9C1.8,8.9,1.2,8.6,0.8,8S0.1,6.9,0,6.2
		s0.1-1.4,0.5-2l2.3-3.7C2.9,0.4,3,0.2,3.2,0.1S3.5,0,3.7,0h14.2c0.2,0,0.4,0,0.5,0.1s0.3,0.2,0.4,0.4L21.2,4.2z M18.6,10.1
		c0.2,0,0.4,0,0.6,0s0.4-0.1,0.6-0.1v6.9c0,0.3-0.1,0.6-0.3,0.8S19,18,18.7,18H2.9c-0.3,0-0.6-0.1-0.8-0.3s-0.3-0.5-0.3-0.8V9.9
		C2,10,2.2,10.1,2.4,10.1s0.4,0,0.6,0c0.3,0,0.7,0,1.1-0.1v3.5h13.5V10C17.9,10.1,18.3,10.1,18.6,10.1z"/>
</g>
</svg>
