<?xml version="1.0" encoding="utf-8"?>
<!-- Generator: Adobe Illustrator 21.1.0, SVG Export Plug-In . SVG Version: 6.00 Build 0)  -->
<svg version="1.1" id="Слой_1" xmlns="http://www.w3.org/2000/svg" xmlns:xlink="http://www.w3.org/1999/xlink" x="0px" y="0px"
	 width="17.3px" height="18px" viewBox="0 0 17.3 18" style="enable-background:new 0 0 17.3 18;" xml:space="preserve">
<style type="text/css">
	.st0{fill:#FFFFFF;}
</style>
<g>
	<path class="st0" d="M3.8,17.3C3.4,17.8,2.9,18,2.2,18s-1.2-0.2-1.6-0.7S0,16.4,0,15.8s0.2-1.2,0.7-1.6l7-7.1C8,7.8,8.4,8.5,9,9
		s1.2,1,1.9,1.3L3.8,17.3z M3.4,14.6c-0.2-0.2-0.4-0.2-0.6-0.2s-0.4,0.1-0.6,0.2S2,15,2,15.2s0.1,0.4,0.2,0.6S2.6,16,2.8,16
		s0.4-0.1,0.6-0.2s0.2-0.4,0.2-0.6S3.6,14.8,3.4,14.6z M17.3,7.2c0.1,0.1,0.1,0.3,0,0.4c-0.4,0.8-1,1.3-1.8,1.8s-1.6,0.7-2.5,0.7
		s-1.8-0.2-2.5-0.7S9,8.4,8.6,7.6S7.9,6,7.9,5.1s0.2-1.8,0.7-2.5s1.1-1.4,1.8-1.9S12,0,12.9,0s1.8,0.2,2.5,0.7s1.4,1,1.8,1.8
		c0.1,0.1,0.1,0.3,0,0.4s-0.2,0.2-0.4,0.2h-3.7l-1.4,2l1.4,2h3.7C17.1,7,17.2,7.1,17.3,7.2z"/>
</g>
</svg>
