<?xml version="1.0" encoding="utf-8"?>
<!-- Generator: Adobe Illustrator 21.1.0, SVG Export Plug-In . SVG Version: 6.00 Build 0)  -->
<svg version="1.1" id="Слой_1" xmlns="http://www.w3.org/2000/svg" xmlns:xlink="http://www.w3.org/1999/xlink" x="0px" y="0px"
	 width="21px" height="24px" viewBox="0 0 21 24" style="enable-background:new 0 0 21 24;" xml:space="preserve">
<style type="text/css">
	.st0{fill:#DB8C36;}
</style>
<g>
	<path class="st0" d="M18.8,3c0.6,0,1.2,0.2,1.6,0.7s0.7,1,0.7,1.6v2.2H0V5.2c0-0.6,0.2-1.2,0.7-1.6S1.6,3,2.2,3h2.2V0.8
		c0-0.2,0.1-0.4,0.2-0.5S5,0,5.2,0h1.5C7,0,7.1,0.1,7.3,0.2s0.2,0.3,0.2,0.5V3h6V0.8c0-0.2,0.1-0.4,0.2-0.5S14,0,14.2,0h1.5
		c0.2,0,0.4,0.1,0.5,0.2s0.2,0.3,0.2,0.5V3H18.8z M0,21.8V9h21v12.8c0,0.6-0.2,1.2-0.7,1.6s-1,0.7-1.6,0.7H2.2
		c-0.6,0-1.2-0.2-1.6-0.7S0,22.4,0,21.8z M3,12.6v1.9c0,0.2,0.1,0.3,0.2,0.4S3.4,15,3.6,15h1.9c0.2,0,0.3-0.1,0.4-0.2S6,14.6,6,14.4
		v-1.9c0-0.2-0.1-0.3-0.2-0.4S5.6,12,5.4,12H3.6c-0.2,0-0.3,0.1-0.4,0.2S3,12.4,3,12.6z M3,18.6v1.9c0,0.2,0.1,0.3,0.2,0.4
		S3.4,21,3.6,21h1.9c0.2,0,0.3-0.1,0.4-0.2S6,20.6,6,20.4v-1.9c0-0.2-0.1-0.3-0.2-0.4S5.6,18,5.4,18H3.6c-0.2,0-0.3,0.1-0.4,0.2
		S3,18.4,3,18.6z M9,12.6v1.9c0,0.2,0.1,0.3,0.2,0.4S9.4,15,9.6,15h1.9c0.2,0,0.3-0.1,0.4-0.2s0.2-0.2,0.2-0.4v-1.9
		c0-0.2-0.1-0.3-0.2-0.4S11.6,12,11.4,12H9.6c-0.2,0-0.3,0.1-0.4,0.2S9,12.4,9,12.6z M9,18.6v1.9c0,0.2,0.1,0.3,0.2,0.4
		S9.4,21,9.6,21h1.9c0.2,0,0.3-0.1,0.4-0.2s0.2-0.2,0.2-0.4v-1.9c0-0.2-0.1-0.3-0.2-0.4S11.6,18,11.4,18H9.6c-0.2,0-0.3,0.1-0.4,0.2
		S9,18.4,9,18.6z M15,12.6v1.9c0,0.2,0.1,0.3,0.2,0.4s0.2,0.2,0.4,0.2h1.9c0.2,0,0.3-0.1,0.4-0.2s0.2-0.2,0.2-0.4v-1.9
		c0-0.2-0.1-0.3-0.2-0.4S17.6,12,17.4,12h-1.9c-0.2,0-0.3,0.1-0.4,0.2S15,12.4,15,12.6z M15,18.6v1.9c0,0.2,0.1,0.3,0.2,0.4
		s0.2,0.2,0.4,0.2h1.9c0.2,0,0.3-0.1,0.4-0.2s0.2-0.2,0.2-0.4v-1.9c0-0.2-0.1-0.3-0.2-0.4S17.6,18,17.4,18h-1.9
		c-0.2,0-0.3,0.1-0.4,0.2S15,18.4,15,18.6z"/>
</g>
</svg>
