<?xml version="1.0" encoding="utf-8"?>
<!-- Generator: Adobe Illustrator 21.1.0, SVG Export Plug-In . SVG Version: 6.00 Build 0)  -->
<svg version="1.1" id="Слой_1" xmlns="http://www.w3.org/2000/svg" xmlns:xlink="http://www.w3.org/1999/xlink" x="0px" y="0px"
	 width="18px" height="24px" viewBox="0 0 18 24" style="enable-background:new 0 0 18 24;" xml:space="preserve">
<style type="text/css">
	.st0{fill:#DB8C36;}
</style>
<g>
	<path class="st0" d="M15.8,3c0.6,0,1.2,0.2,1.6,0.7s0.7,1,0.7,1.6v16.5c0,0.6-0.2,1.2-0.7,1.6s-1,0.7-1.6,0.7H2.2
		c-0.6,0-1.2-0.2-1.6-0.7S0,22.4,0,21.8V5.2c0-0.6,0.2-1.2,0.7-1.6S1.6,3,2.2,3H6c0-0.8,0.3-1.5,0.9-2.1S8.2,0,9,0s1.5,0.3,2.1,0.9
		S12,2.2,12,3H15.8z M4.5,10.9c0.3,0,0.6-0.1,0.8-0.3s0.3-0.5,0.3-0.8S5.5,9.2,5.3,9S4.8,8.6,4.5,8.6S3.9,8.7,3.7,9S3.4,9.4,3.4,9.8
		s0.1,0.6,0.3,0.8S4.2,10.9,4.5,10.9z M4.5,15.4c0.3,0,0.6-0.1,0.8-0.3s0.3-0.5,0.3-0.8s-0.1-0.6-0.3-0.8s-0.5-0.3-0.8-0.3
		s-0.6,0.1-0.8,0.3s-0.3,0.5-0.3,0.8s0.1,0.6,0.3,0.8S4.2,15.4,4.5,15.4z M4.5,19.9c0.3,0,0.6-0.1,0.8-0.3s0.3-0.5,0.3-0.8
		S5.5,18.2,5.3,18s-0.5-0.3-0.8-0.3S3.9,17.7,3.7,18s-0.3,0.5-0.3,0.8s0.1,0.6,0.3,0.8S4.2,19.9,4.5,19.9z M15,10.1V9.4
		c0-0.1,0-0.2-0.1-0.3S14.7,9,14.6,9H7.9C7.8,9,7.7,9,7.6,9.1S7.5,9.3,7.5,9.4v0.8c0,0.1,0,0.2,0.1,0.3s0.2,0.1,0.3,0.1h6.8
		c0.1,0,0.2,0,0.3-0.1S15,10.2,15,10.1z M15,14.6v-0.8c0-0.1,0-0.2-0.1-0.3s-0.2-0.1-0.3-0.1H7.9c-0.1,0-0.2,0-0.3,0.1
		s-0.1,0.2-0.1,0.3v0.8c0,0.1,0,0.2,0.1,0.3S7.8,15,7.9,15h6.8c0.1,0,0.2,0,0.3-0.1S15,14.7,15,14.6z M15,19.1v-0.8
		c0-0.1,0-0.2-0.1-0.3S14.7,18,14.6,18H7.9c-0.1,0-0.2,0-0.3,0.1s-0.1,0.2-0.1,0.3v0.8c0,0.1,0,0.2,0.1,0.3s0.2,0.1,0.3,0.1h6.8
		c0.1,0,0.2,0,0.3-0.1S15,19.2,15,19.1z M9,1.9C8.7,1.9,8.4,2,8.2,2.2S7.9,2.7,7.9,3S8,3.6,8.2,3.8S8.7,4.1,9,4.1S9.6,4,9.8,3.8
		s0.3-0.5,0.3-0.8S10,2.4,9.8,2.2S9.3,1.9,9,1.9z"/>
</g>
</svg>
